PathFileType	4	(X/Y/Z)	/Users/visionmauri/Downloads/Videos/OAW08-top_Sports2D/OAW08-top_Sports2D_px_person00.trc
DataRate	CameraRate	NumFrames	NumMarkers	Units	OrigDataRate	OrigDataStartFrame	OrigNumFrames
30.0	30.0	7	22	m	30.0	804	2144
Frame#	Time	Hip			RHip			RKnee			RAnkle			RBigToe			RSmallToe			RHeel			LHip			LKnee			LAnkle			LBigToe			LSmallToe			LHeel			Neck			Head			Nose			RShoulder			RElbow			RWrist			LShoulder			LElbow			LWrist			
		X1	Y1	Z1	X2	Y2	Z2	X3	Y3	Z3	X4	Y4	Z4	X5	Y5	Z5	X6	Y6	Z6	X7	Y7	Z7	X8	Y8	Z8	X9	Y9	Z9	X10	Y10	Z10	X11	Y11	Z11	X12	Y12	Z12	X13	Y13	Z13	X14	Y14	Z14	X15	Y15	Z15	X16	Y16	Z16	X17	Y17	Z17	X18	Y18	Z18	X19	Y19	Z19	X20	Y20	Z20	X21	Y21	Z21	X22	Y22	Z22
804	26.812505832944474	524.2573454630713	596.1502522938815	0.0	536.3121634664093	600.9450440778894	0.0	535.0345627235157	650.2450739187934	0.0	534.1637768416829	695.8136290109497	0.0	534.3580133666021	702.5257369159916	0.0	542.0159178997111	704.8915753533014	0.0	532.9346775606606	706.0592131648517	0.0	512.7838388021627	600.7414676748119	0.0	509.84352256879555	645.4672811836246	0.0	506.84971472934745	688.8140091518279	0.0	504.98644363484374	692.4266788701738	0.0	499.923521950416	694.6953930489848	0.0	508.67723235840134	697.7310887118788	0.0	526.7344274847842	519.8856161376108	0.0	527.5962053929396	492.97155656919574	0.0	523.9489414584198	508.8631288563149	0.0	547.7172830197472	532.7063635575532	0.0	557.0774358388011	571.042033376081	0.0	554.5131784676107	600.1178943872746	0.0	505.9315461324001	531.4632003258093	0.0	496.7523881839364	567.580676345454	0.0	489.626625265573	600.2767855167097	0.0
805	26.845854720796392	523.1781348323788	596.499953159604	0.0	535.128809245252	601.6623684357055	0.0	534.1403053594878	648.9563542034016	0.0	534.1795029260911	693.2266863764825	0.0	534.1501193410279	703.6842318691345	0.0	541.5775666194278	705.3750948392893	0.0	532.9266685397544	703.2442646646062	0.0	511.8823751703756	601.638994925455	0.0	509.17763151191593	645.6847360894878	0.0	506.8666679239599	688.90099834588	0.0	503.82271976735956	693.210158512546	0.0	499.3101831115916	695.6886779446819	0.0	508.8908456543415	698.3238033434983	0.0	525.3835189717341	520.2771664148186	0.0	526.1346339220837	493.43595544899915	0.0	522.5600916727705	509.1980890809637	0.0	546.2763126240927	532.9119879259276	0.0	555.7935339934076	570.9512258246706	0.0	553.3594487744189	599.673037683486	0.0	504.7145197184529	531.7370340985998	0.0	495.77465972377155	567.8597452745912	0.0	488.3605242032638	600.1874931396635	0.0
806	26.879203608648314	521.7402844878084	596.1566835452858	0.0	533.5557883600712	601.4862281303269	0.0	533.101650159783	646.5950899783653	0.0	534.0400952648205	688.0505125627615	0.0	534.0872277520394	705.1958294655581	0.0	541.6106695519966	705.7516482211372	0.0	532.8886896828378	698.2963057569306	0.0	510.5195230904394	601.398662542273	0.0	508.46122879594776	645.1228159373422	0.0	506.90905759739485	688.7240681812955	0.0	503.303150732521	693.9013650878575	0.0	499.2497908021711	696.3817876813466	0.0	509.11456846231994	698.4704242675631	0.0	523.9566433288358	520.4346611967383	0.0	524.534241235298	493.5517643428482	0.0	520.4391085589599	509.21959387775104	0.0	544.7172642052739	533.0575054980754	0.0	554.1746869267391	570.7587264120658	0.0	552.1762792829026	599.1996560602629	0.0	503.5175299986364	531.7676331223769	0.0	494.6450904308254	567.9070161022175	0.0	486.7980109550424	600.0248646772787	0.0
807	26.912552496500236	520.1711495351715	594.4166451780924	0.0	532.0035371591479	599.3262483102022	0.0	532.1277086925655	644.0857248234396	0.0	533.8736446092607	682.4322770869336	0.0	534.1791734568931	706.0675323502236	0.0	542.0053743857371	705.4220508466915	0.0	532.8432952416193	693.2914531370645	0.0	509.033957955079	599.0902307137133	0.0	507.7100225936113	643.8520775874501	0.0	507.08719205244444	688.3142743972603	0.0	503.10083177787334	694.2256575763382	0.0	499.46403988182925	696.4933801374699	0.0	509.52392441807126	698.2083791184253	0.0	522.7325671170682	520.3977279334109	0.0	523.2387570937397	493.6478197658167	0.0	517.8691557489559	509.07309240822883	0.0	543.4118260081817	533.2269927915704	0.0	552.5648992538102	570.4711250067049	0.0	550.9711754067171	598.8111410134591	0.0	502.6882106069488	531.6724406898402	0.0	493.53067145282034	567.8405515333277	0.0	485.305953888901	599.8320906630584	0.0
808	26.945901384352158	518.9267124409344	592.2474225686276	0.0	530.8559415055108	596.2730036176755	0.0	531.2646347427064	642.2611639545252	0.0	533.6709278376921	678.6842643740993	0.0	534.4977875606262	705.0978948011049	0.0	542.4994583854367	703.744668093762	0.0	532.810751507868	690.1971113380671	0.0	507.9314838711726	596.1839898468972	0.0	506.94563928188194	642.6768014923916	0.0	507.3573712161763	687.9789761625752	0.0	502.93724468088146	694.3731471575702	0.0	499.56420100748954	696.5655433047875	0.0	509.9021945688175	697.9187705071386	0.0	521.6904762750346	520.2611412518286	0.0	522.0841854644545	493.98599944309035	0.0	515.8324022056217	508.9740496753001	0.0	542.3925389002535	533.2407364050028	0.0	551.1723781143934	570.0456781036711	0.0	549.7769941391896	598.4731439458052	0.0	502.17071871418995	531.4211896895581	0.0	492.586870565957	567.6557258691025	0.0	483.82915324768254	599.485128576074	0.0
809	26.979250272204077	518.1538170822247	591.0186358763101	0.0	530.0469403795505	594.2843689721346	0.0	530.3317355878655	640.9201328894607	0.0	533.185003598935	676.7801643066168	0.0	534.9372891768389	702.6502628544451	0.0	542.7487840546182	701.1670352343232	0.0	532.6958589435086	688.6451577898031	0.0	507.2117311268735	594.6667545916222	0.0	506.1831674192674	642.0459200467197	0.0	507.44937057817185	687.8969624198371	0.0	503.10740417531883	694.5839145051665	0.0	499.57712173166334	697.0234742158655	0.0	509.87992858194514	697.7934999999205	0.0	520.6388683289299	520.0628752647901	0.0	520.6726017955413	494.2068132681286	0.0	515.0203200815922	508.93757357859874	0.0	541.4859766712503	532.8160616092222	0.0	549.899122151663	569.4836762792512	0.0	548.6381954572972	598.1377932137295	0.0	501.476245777372	530.9401888419042	0.0	491.6545471442835	567.0506465092644	0.0	482.2516465702249	598.7735123540001	0.0
810	27.012599160056	517.5981031284514	590.7589963260855	0.0	529.3823838529113	593.7956251145766	0.0	529.2753648088861	639.5279099254983	0.0	532.4364856935782	675.52308475591	0.0	535.2333973378459	700.3646465566526	0.0	542.4686087017225	698.9590139447232	0.0	532.3813821456016	687.2838312057877	0.0	506.51310363984385	594.5746621771414	0.0	505.57253377621123	641.5992805331504	0.0	507.3126950920216	687.9122782479114	0.0	503.6656914317963	694.7222889688769	0.0	499.6648999989089	697.4607878520201	0.0	509.57042361876205	697.7451368683487	0.0	519.6335728474987	520.0500207141582	0.0	519.3127721400707	493.5798243474801	0.0	515.0191151587346	508.9549269823994	0.0	540.6776661285706	532.0778686055293	0.0	548.7232475217655	568.8633303595467	0.0	547.6510698774455	597.8325211296157	0.0	500.4055558013941	530.305974200836	0.0	490.6613168018424	565.8726401942077	0.0	480.92336586467235	597.5931071912606	0.0
